PathFileType	4	(X/Y/Z)	Patient4_TMGait_0pt5_02_right_03.trc.trc
DataRate	CameraRate	NumFrames	NumMarkers	Units	OrigDataRate	OrigDataStartFrame	OrigNumFrames
76.086956521739	76.086956521739	5	33	mm	76.086956521739	53	       141
Frame#	Time	Sacral			L.Shoulder			Chest			R.Shoulder			Neck			R.ASIS			L.ASIS			R.Thigh.Superior			R.Thigh.Lateral			R.Thigh.Inferior			R.Patella			L.Thigh.Superior			L.Thigh.Lateral			L.Thigh.Inferior			L.Patella			L.Shank.Superior			L.Shank.Lateral			L.Shank.Inferior			R.Shank.Superior			R.Shank.Lateral			R.Shank.Inferior			R.Heel			R.Midfoot.Superior			R.Midfoot.Lateral			R.Toe			L.Heel			L.Midfoot.Lateral			L.Midfoot.Superior			L.Toe			L.Elbow			L.Wrist			R.Elbow			R.Wrist			
		X1	Y1	Z1	X2	Y2	Z2	X3	Y3	Z3	X4	Y4	Z4	X5	Y5	Z5	X6	Y6	Z6	X7	Y7	Z7	X8	Y8	Z8	X9	Y9	Z9	X10	Y10	Z10	X11	Y11	Z11	X12	Y12	Z12	X13	Y13	Z13	X14	Y14	Z14	X15	Y15	Z15	X16	Y16	Z16	X17	Y17	Z17	X18	Y18	Z18	X19	Y19	Z19	X20	Y20	Z20	X21	Y21	Z21	X22	Y22	Z22	X23	Y23	Z23	X24	Y24	Z24	X25	Y25	Z25	X26	Y26	Z26	X27	Y27	Z27	X28	Y28	Z28	X29	Y29	Z29	X30	Y30	Z30	X31	Y31	Z31	X32	Y32	Z32	X33	Y33	Z33	

53	4.493428571429	565.169329822661	1018.842902376490	551.043348850628	761.764827875890	1431.268159792370	359.345895958395	868.858688597497	1355.363679674378	515.653991165212	801.400614087789	1439.167460043201	693.164140520826	775.906782726656	1494.228151661775	509.261863041009	793.914245655722	938.002670860544	656.802384975041	767.842791687078	964.610560415332	384.614819622624	827.030726773584	737.310585746145	621.218272650832	743.528276253193	631.852267586508	679.325360662096	814.614013505461	578.288297545812	594.423776849800	811.720969733747	489.369720678091	597.640027364524	849.203724466992	784.211709364748	416.054878693977	806.144704911278	659.835690021371	338.108753567216	905.490281143167	597.199362483002	403.912163268914	923.973123912768	513.712801213916	397.331187813422	875.039846326872	441.587852219203	384.450593412748	754.488219072202	361.446619406997	330.944161009226	781.441493173716	232.657643655057	382.007591183543	781.222818343209	402.349543649475	604.113229080763	708.166312853389	299.746077384661	664.506619922172	744.849419322082	205.374548883698	598.386310662567	604.262069456035	43.393738512109	566.765971031554	776.291940212729	96.718909098063	601.946130740100	687.581292427358	36.622117846853	641.454585966346	896.042522369544	42.487475904250	630.354730609212	620.048121965423	110.391168174272	414.571657611456	687.860837714658	92.820406709141	331.595321140397	785.345107366985	129.466719709918	355.305556779697	892.226502574582	50.065372566397	318.702284414315	711.196957755162	1073.087311769593	260.142861477309	804.320496104127	829.085864283214	236.740398751545	785.914845049541	1102.094742763364	832.622917998538	984.297859204202	938.834393323652	802.547270687733	
54	4.506571428571	564.246303191121	1019.135528656821	552.815948493001	760.656083834392	1430.742079176115	359.557665658295	868.673206388197	1354.680118812043	515.134643958412	802.923041121972	1439.115845262959	693.078854574282	776.090825860878	1493.859712564806	509.268899159554	793.229084919482	937.463593462552	656.896773926635	765.794622390330	964.771102809895	384.877019433854	824.886701324803	736.533168331123	620.774806327497	741.313761266611	631.451100737437	679.566906263181	811.487461498779	577.526147004170	594.213294504454	808.014082342786	488.521029367157	597.550836086080	847.508533034587	785.160428415029	416.454073949665	805.014270064364	660.630182089604	338.304291712189	904.087487806254	598.511341700321	404.747295498823	924.300028711452	516.853740474305	397.895483953762	879.135382134061	443.989085146854	384.439502618751	764.125408771674	356.819101291666	330.077344231002	798.826943845429	229.530630127832	381.183094025388	776.933091388461	401.673789373919	604.070446178721	703.340634873750	299.503935282769	664.535548314995	739.182473349535	204.964628983440	598.278837741433	597.663361106257	43.401061903171	566.763028045604	769.670431719935	96.668939163725	601.919230908301	680.969475994470	36.620838354773	641.457759444999	889.432010781868	42.373729950732	630.391942458732	645.371974207066	96.918195329755	413.049807465583	714.576439314320	84.012570333186	330.293005612838	809.391092812943	126.851837036850	354.411898507471	921.439306527937	54.704853132953	318.168318466134	705.201515663542	1073.129405312184	261.003697548743	787.321216240140	825.535126169484	236.488878011070	794.902929704994	1102.708413789764	833.639514870667	1002.218413359633	952.871469011494	799.128262943863	
55	4.519714285714	563.369428966525	1019.349590533079	554.391974323762	759.612761750279	1430.267679220460	359.721659228494	868.494311815848	1353.945997424429	514.545174221503	804.391906189720	1438.893180006396	692.944387558395	776.296212579845	1493.441954614171	509.265107749303	792.600959728964	936.915697402044	656.857328329019	763.874562574825	964.778254414459	384.952015904192	822.904570966799	735.721718757721	620.404162045280	739.149301720114	631.003296504955	679.742475580759	808.519940689555	576.715229001452	594.023526136286	804.443742992143	487.636484989810	597.435489129817	845.498156646728	785.656871025467	416.753145052505	803.445425780768	661.093487750380	338.274147627076	902.128664463342	599.341816975633	405.456186738746	924.013354435073	519.662913600336	398.374470867715	882.679789091774	446.281406828616	384.464063777783	773.798957136835	352.348880434419	329.063513597428	815.929379565754	227.114430053449	380.591068681981	772.751670690993	400.970680978303	603.989402686720	698.612883321616	299.262506160971	664.546829028433	733.560551593092	204.537804869404	598.149872549140	591.071118078845	43.433307234396	566.763620644487	763.053536556996	96.610826625422	601.881267784388	674.367598971368	36.622595702675	641.458317668051	882.827330567000	42.232024674384	630.430368699881	670.886494224415	84.797515304202	411.518312711559	741.485063546357	76.405925356489	329.263896463605	833.188614317859	125.236633770203	354.000378907408	949.993595699391	60.437960179564	318.696813191633	699.015412087935	1073.391170143793	261.657401005097	770.893828389588	822.978887872680	236.406050400642	803.886072609988	1103.223906166638	834.221522899382	1019.107363668140	967.339585390097	795.103499263597	
56	4.532857142857	562.556003017150	1019.495733711380	555.762233743422	758.645350685880	1429.857971629813	359.828095002281	868.323611650952	1353.191197310036	513.890656376433	805.791494157228	1438.532599806232	692.752087426391	776.521244525518	1492.998640562554	509.236067116990	792.039695073297	936.380310779101	656.695985909684	762.090566029992	964.650421960515	384.855639054366	821.083369467281	734.883755626275	620.113081796311	737.014916238135	630.523220860837	679.850259355861	805.687912716944	575.862243361651	593.857430674768	800.982024182065	486.730714121344	597.291416631619	843.221642079645	785.735262009650	416.953395204724	801.534041932496	661.281116672726	338.004599142618	899.737363517201	599.739456385688	405.984909989139	923.189336194020	522.137202296087	398.740270919037	885.689694703920	448.474781603976	384.506918747193	783.390570004850	348.180971535106	327.950853758903	832.500819720968	225.505868198472	380.258054768833	768.659625336353	400.255183663329	603.868033809926	693.968890605536	299.034993748384	664.541208397408	727.975293968065	204.109367628637	598.001026378559	584.484492522415	43.494139645931	566.770768992329	756.443050565141	96.546943201675	601.833312036947	667.776075614075	36.628940718524	641.457042717031	876.228469840801	42.063490592526	630.470058863992	696.169649450659	74.295250086834	410.079994877498	768.146456815699	70.174317334341	328.584247918571	856.370793540670	124.690923870351	354.089845237839	977.447588441480	67.197785531103	320.275808470432	692.665809080542	1073.880790442956	262.142121179582	755.143662651444	821.304142524029	236.487210584745	812.853736647191	1103.648686534555	834.335808158627	1034.888130048682	982.069852775158	790.516007916037	
57	4.546000000000	561.826131674013	1019.585110333528	556.917926548807	757.758698187781	1429.522309674484	359.866853716805	868.162109336502	1352.446763670367	513.174940664240	807.111156972473	1438.074269435478	692.491290844202	776.760641070626	1492.553789411892	509.166229902636	791.552581656133	935.874564825422	656.419903645137	760.449915238240	964.412531224909	384.601876891546	819.402146597209	734.027511941011	619.885528194161	734.886319415479	630.028756085071	679.887112891193	802.950664670821	574.976751683156	593.708721681128	797.588122498627	485.820628278250	597.116365687137	840.753876059717	785.447242470624	417.047796130424	799.386068847782	661.249163364580	337.504907694453	897.049439336108	599.756924803977	406.288843675545	921.908571011628	524.267508768059	398.976108575246	888.184996307316	450.564686378580	384.542485013963	792.737525342205	344.416393662295	326.806752549364	848.300113202492	224.721150345132	380.179676829039	764.626612575567	399.543590350625	603.705922615582	689.383383029450	298.833879530499	664.517557365064	722.413993111652	203.695269015153	597.836150607040	577.902805682454	43.585955813140	566.786496766728	749.840525406857	96.480730777155	601.778078397585	661.194476641090	36.641146156934	641.454277042991	869.634796071586	41.871829334136	630.510817456406	720.793198236059	65.538894148137	408.846931683758	794.091830966485	65.370459773130	328.301063526907	878.578105984245	125.183563680974	354.638814351717	1003.393009572080	74.817922984261	322.754599178551	686.198331383206	1074.598851592179	262.495672555786	740.155952418898	820.387037651351	236.725881068925	821.784144136895	1104.000910438516	833.954146491315	1049.506278817380	996.885472329601	785.418348063297	
